<svg width="71" height="20" viewBox="0 0 71 20" fill="none" xmlns="http://www.w3.org/2000/svg">
<path d="M0.825 19V1.3H5.125V15.275H11.975V19H0.825ZM31.1773 10.075C31.1773 11.475 30.9357 12.7583 30.4523 13.925C29.969 15.075 29.294 16.0667 28.4273 16.9C27.5773 17.7167 26.5607 18.35 25.3773 18.8C24.194 19.25 22.9107 19.475 21.5273 19.475C20.144 19.475 18.8607 19.25 17.6773 18.8C16.5107 18.35 15.494 17.7167 14.6273 16.9C13.7773 16.0667 13.1107 15.075 12.6273 13.925C12.144 12.7583 11.9023 11.475 11.9023 10.075C11.9023 8.65833 12.144 7.38333 12.6273 6.25C13.1107 5.1 13.7773 4.125 14.6273 3.325C15.494 2.525 16.5107 1.90833 17.6773 1.475C18.8607 1.04167 20.144 0.824999 21.5273 0.824999C22.9107 0.824999 24.194 1.04167 25.3773 1.475C26.5607 1.90833 27.5773 2.525 28.4273 3.325C29.294 4.125 29.969 5.1 30.4523 6.25C30.9357 7.38333 31.1773 8.65833 31.1773 10.075ZM26.6023 10.075C26.6023 9.30833 26.4773 8.59167 26.2273 7.925C25.9773 7.25833 25.6273 6.69167 25.1773 6.225C24.744 5.74167 24.2107 5.36667 23.5773 5.1C22.9607 4.81667 22.2773 4.675 21.5273 4.675C20.7773 4.675 20.094 4.81667 19.4773 5.1C18.8607 5.36667 18.3273 5.74167 17.8773 6.225C17.4273 6.69167 17.0773 7.25833 16.8273 7.925C16.594 8.59167 16.4773 9.30833 16.4773 10.075C16.4773 10.875 16.6023 11.6167 16.8523 12.3C17.1023 12.9667 17.444 13.5417 17.8773 14.025C18.3273 14.5083 18.8607 14.8917 19.4773 15.175C20.094 15.4417 20.7773 15.575 21.5273 15.575C22.2773 15.575 22.9607 15.4417 23.5773 15.175C24.194 14.8917 24.7273 14.5083 25.1773 14.025C25.6273 13.5417 25.9773 12.9667 26.2273 12.3C26.4773 11.6167 26.6023 10.875 26.6023 10.075ZM49.217 17.925C48.3503 18.375 47.3337 18.7417 46.167 19.025C45.017 19.3083 43.7587 19.45 42.392 19.45C40.9753 19.45 39.667 19.225 38.467 18.775C37.2837 18.325 36.2587 17.6917 35.392 16.875C34.542 16.0583 33.8753 15.0833 33.392 13.95C32.9087 12.8 32.667 11.525 32.667 10.125C32.667 8.70833 32.9087 7.425 33.392 6.275C33.892 5.125 34.5753 4.15 35.442 3.35C36.3087 2.53333 37.3253 1.90833 38.492 1.475C39.6587 1.04167 40.917 0.824999 42.267 0.824999C43.667 0.824999 44.967 1.04167 46.167 1.475C47.367 1.89167 48.342 2.45833 49.092 3.175L46.392 6.25C45.9753 5.76667 45.4253 5.375 44.742 5.075C44.0587 4.75833 43.2837 4.6 42.417 4.6C41.667 4.6 40.9753 4.74167 40.342 5.025C39.7087 5.29167 39.1587 5.675 38.692 6.175C38.2253 6.65833 37.8587 7.24167 37.592 7.925C37.342 8.59167 37.217 9.325 37.217 10.125C37.217 10.9417 37.3337 11.6917 37.567 12.375C37.8003 13.0583 38.142 13.65 38.592 14.15C39.0587 14.6333 39.6253 15.0167 40.292 15.3C40.9753 15.5667 41.7503 15.7 42.617 15.7C43.117 15.7 43.592 15.6667 44.042 15.6C44.492 15.5167 44.9087 15.3917 45.292 15.225V12H41.917V8.55H49.217V17.925ZM70.6559 10.075C70.6559 11.475 70.4142 12.7583 69.9309 13.925C69.4475 15.075 68.7725 16.0667 67.9059 16.9C67.0559 17.7167 66.0392 18.35 64.8559 18.8C63.6725 19.25 62.3892 19.475 61.0059 19.475C59.6225 19.475 58.3392 19.25 57.1559 18.8C55.9892 18.35 54.9725 17.7167 54.1059 16.9C53.2559 16.0667 52.5892 15.075 52.1059 13.925C51.6225 12.7583 51.3809 11.475 51.3809 10.075C51.3809 8.65833 51.6225 7.38333 52.1059 6.25C52.5892 5.1 53.2559 4.125 54.1059 3.325C54.9725 2.525 55.9892 1.90833 57.1559 1.475C58.3392 1.04167 59.6225 0.824999 61.0059 0.824999C62.3892 0.824999 63.6725 1.04167 64.8559 1.475C66.0392 1.90833 67.0559 2.525 67.9059 3.325C68.7725 4.125 69.4475 5.1 69.9309 6.25C70.4142 7.38333 70.6559 8.65833 70.6559 10.075ZM66.0809 10.075C66.0809 9.30833 65.9559 8.59167 65.7059 7.925C65.4559 7.25833 65.1059 6.69167 64.6559 6.225C64.2225 5.74167 63.6892 5.36667 63.0559 5.1C62.4392 4.81667 61.7559 4.675 61.0059 4.675C60.2559 4.675 59.5725 4.81667 58.9559 5.1C58.3392 5.36667 57.8059 5.74167 57.3559 6.225C56.9059 6.69167 56.5559 7.25833 56.3059 7.925C56.0725 8.59167 55.9559 9.30833 55.9559 10.075C55.9559 10.875 56.0809 11.6167 56.3309 12.3C56.5809 12.9667 56.9225 13.5417 57.3559 14.025C57.8059 14.5083 58.3392 14.8917 58.9559 15.175C59.5725 15.4417 60.2559 15.575 61.0059 15.575C61.7559 15.575 62.4392 15.4417 63.0559 15.175C63.6725 14.8917 64.2059 14.5083 64.6559 14.025C65.1059 13.5417 65.4559 12.9667 65.7059 12.3C65.9559 11.6167 66.0809 10.875 66.0809 10.075Z" fill="white"/>
</svg>
